<svg xmlns="http://www.w3.org/2000/svg" width="256" height="256" viewBox="0 0 512 512">
  <defs>
    <style>
      .cls-1 {
        fill: #d7dae0;
        fill-rule: evenodd;
      }
    </style>
  </defs>
  <path id="sanguosha" data-name="san guo sha" class="cls-1" d="M196.368,139.26v3.228l2.409,1.613v0.807h1.607q0.8,1.211,1.606,2.421H203.6q0.4,0.807.8,1.613l2.41,0.807v0.807h1.606q0.4,0.807.8,1.614h1.606l0.8,1.613,3.213,0.807V155.4l2.409,0.807,0.8,1.614h1.606q0.4,0.805.8,1.613h1.607l1.606,2.421h1.606l0.8,1.613h1.606L230.9,167.5h1.606q0.4,0.805.8,1.613h0.8v1.614l2.41,1.614c2.824,2.917,5.6,6.344,5.622,12.1h-0.8q-0.4,2.018-.8,4.034h-0.8v1.614a22.687,22.687,0,0,1-4.015,4.841l-0.8,1.614H230.1v-0.807c-0.921-.621-5.112-0.931-6.425-1.614-4.968-2.583-8.662-6.213-16.062-6.454V190.9l3.212,2.42v0.807h1.606v0.807l3.213,0.807v0.807h2.409l5.622,4.841v3.227L213.233,214.3v6.455h0.8V226.4a85.259,85.259,0,0,1,3.212,18.557l3.212,0.807v-0.807a6.326,6.326,0,0,0,3.213-1.614v-0.807h1.606l1.606-2.42c2.807-1.94,5.695-2.36,10.441-2.421V238.5l4.819,0.807v0.807h2.409l0.8,1.614h1.606l2.41,3.227c2.374,1.725,3.956,1.511,4.818,4.841,2,2.146-.26,5.708-0.8,8.068-2.547.557-1.545,1.173-2.409,1.614l-4.819.807v0.807l-8.031,1.613v0.807h-1.606v0.807h-2.41v0.807h-2.409l-0.8,1.614H229.3v0.806l-3.213.807q-0.4.807-.8,1.614h-1.606v0.807l-4.819,4.034v8.875c0.847,0.934,1.431,5.132.8,7.262h-0.8v4.034h-0.8q-0.4,6.453-.8,12.909c2.359,1.379,2.3,2.333,6.425,2.421l12.85-5.648v-0.807l2.409-.807,0.8-1.614,4.819-1.613,0.8-1.614h2.409V297.4l3.213-.807v-0.806l20.078-5.648v-0.807l4.015-.807v-0.807l3.213-.807v-0.806H280.7V285.3l4.819-1.614v-0.807l3.212-.807q0.4-.805.8-1.613l3.213-.807q0.4-.807.8-1.614h1.606l1.606-2.42h1.606l4.016-4.841L308,265.934V264.32l1.606-.807V261.9c2.308-4.121,4.756-8.043,4.819-14.523h-2.41c-2.775,4.757-11.059,9.394-16.062,12.1l-3.212.807-0.8,1.613h-1.607q-0.4.807-.8,1.614l-5.622,4.841v1.614l-4.015,3.227c-5.043,7.022-12.057,15.535-23.29,16.137-4.312-4.79-11.884-4.549-12.047-13.716l3.212-2.421v-0.807h1.607l0.8-1.613h2.409v-0.807h1.606v-0.807H255.8v-0.807H257.4v-0.807h1.606l2.409-3.227,7.228-6.455v-1.613l3.213-2.421v-1.614l2.409-1.613q0.4-1.614.8-3.228l1.606-.806q0.4-1.614.8-3.228c2.042-3.825,3.952-5.967,4.016-12.1-3.093-1.807-2.523-2.452-8.031-2.421v-0.807l-9.637-.806-4.016-4.842v-1.613c2.947-1.563,4.742-1.677,9.637-1.614,2.086-1.868,6.439-.694,9.638-1.614v-0.806c5.507-1.562,14.3,1.422,16.865,3.227l4.819,5.648,3.212,2.42v1.614l2.41,1.614v1.613l2.409,1.614c2.025,2.812-.074,2.836,4.819,3.227,0.771-1.57,2.586-3.294,3.212-4.841,2.669-6.592-2.82-9.93,8.031-9.682v0.807l5.622,0.807v0.807l4.819,1.614v0.806h1.606l1.606,2.421h1.606q0.4,0.807.8,1.614l3.213,2.42v1.614l2.409,1.613v1.614h0.8c2.57,4.7,3.265,10.5,3.213,17.75q-2.008,2.824-4.016,5.648h-1.606l-1.606,2.421h-1.606l-0.8,1.614-4.818,1.613q-0.4.807-.8,1.614l-3.213.807q-0.4.807-.8,1.613l-3.212.807-0.8,1.614h-1.606v0.807c-1.411,1.158-1.932,1.842-4.015,2.42-0.539,2.1-1.267,2.628-2.41,4.034h-0.8v1.614l-1.606.807v1.614l-1.606.806v1.614l-1.606.807v1.614l-4.016,3.227v1.614l-4.819,4.034v1.613l-3.212,2.421v1.614l-2.409,1.613V308.7l-2.41,1.614v1.613l-1.606.807q-0.4,1.614-.8,3.228-0.8.4-1.606,0.806v1.614h-0.8v1.614h-0.8v1.613h-0.8v1.614h-0.8v1.614l-1.606.807c-1.114,1.366-1.322,2.566-1.606,4.841l2.409,0.806c3.331,2.88,9.063.042,13.653,1.614v0.807c1.493,0.593,2.321-.221,3.212.807v1.613h0.8q0.4,0.807.8,1.614h5.621v0.807l6.425,0.807v0.807h1.607v0.806l7.228,2.421q0.4,0.807.8,1.614l3.212,0.807q0.4,0.806.8,1.613H334.5q0.4,0.807.8,1.614h1.606l0.8,1.614h1.606v0.806h1.606l0.8,1.614,4.818,1.614,0.8,1.613,13.653,4.035h4.819v0.806l7.228,0.807c1.155-2.915,1.426-4.693,5.622-4.841,1.263,2.805,2.877,6,5.622,7.262l9.637,1.613v0.807c1.372,1.211,1.69,3.054,2.409,4.841l19.275,3.228v0.806h1.606v0.807l5.622,0.807v0.807h1.606v0.807l4.819,0.807V380.5h1.606v0.807h2.409v0.807l4.819,1.614v0.807l4.819,1.613q0.4,0.807.8,1.614c3.84,2,7.183-1.81,12.047,0l24.093,14.523h3.212V403.1h1.607V403.9H487.1v0.807h3.212v0.806h1.607v0.807l5.621,0.807v0.807l4.016,0.807v0.807l3.212,0.806v0.807l4.016,0.807v0.807l3.212,2.42q-0.4,1.211-.8,2.421l-2.409.807v0.807H506.37q-0.4.805-.8,1.613c-2.946,2.7-3.848,4.736-9.638,4.841-1.768-1.638-10.723-1.566-14.456-1.613l-12.047-.807v0.807H462.2v0.807h-3.212v0.806H457.38v0.807h-1.606V427.3c-2.189,1.353-1.515-.731-2.41,2.421h-0.8s1.221,4,.8,4.841l-4.015,2.42c-1.758,2.29-2.617,6.448-3.213,9.682l-5.622,1.614v-0.807h-1.606c-0.8-.458-1.123-3.081-3.212-2.421v0.807c-3.4.633-4.956,2.26-5.622,5.648-4.342.79-3.877,0.065-8.031-.807-1.261-2.235-2.574-3.262-3.213-6.454l-12.849-2.421c-0.393-1.022-.305-1.945-0.8-3.227h-0.8v-3.228h-0.8l-0.8-1.613h-1.606q-0.4-.807-0.8-1.614c-0.908-.8-1.556-0.59-2.41-1.614-5.571.576-4.841,4.135-10.44,4.841a8.561,8.561,0,0,1-.8-3.227c0.025-.013,4.819-3.227,4.819-3.227v-2.421a10.175,10.175,0,0,0-4.016-.807l-6.425,5.648v0.807h-4.016c-0.914-.919,0-0.321-1.606-0.807v-8.068h0.8q0.4-2.017.8-4.034h-0.8v-0.807c-3,.692-9.133,5.569-11.243,4.034h-1.606v-0.807l-4.819-4.034v-1.614l-1.606-.807v-1.613l-2.41-1.614q-0.4-.807-0.8-1.614h-1.606q-0.4-.806-0.8-1.613l-4.016-.807q-0.4-.807-0.8-1.614h-1.606l-6.425-8.068H334.5l-0.8-1.614-1.606-.807q-0.8-2.42-1.606-4.841h-0.8V389.38l-1.606-.807v-1.614l-1.607-.807v-1.613l-1.606-.807q-0.4-1.614-.8-3.228l-2.409-1.613v-1.614l-2.41-1.614V374.05l-4.818-4.034V368.4q-4.015-3.63-8.031-7.262l-3.213-4.034h-1.606l-2.409-3.227H297.56l-1.606-2.421h-1.606q-0.4-.806-0.8-1.613l-4.819-1.614-0.8-1.614-4.016-.806V345a18.178,18.178,0,0,0-6.425-1.614V344.2h-1.606l-1.606,2.42h-0.8v1.614l-1.606.807v0.807l-2.41,1.613v1.614l-2.409,1.614V356.3l-1.606.807v1.614l-2.41,1.614v1.613l-1.606.807v1.614l-1.606.807q-0.4,1.613-.8,3.227l-1.606.807v1.613l-1.607.807v1.614l-1.606.807q-0.4,1.211-.8,2.42h-0.8q-0.4,1.614-.8,3.228l-1.606.806q-0.8,2.421-1.607,4.842l-1.606.806v1.614h-0.8q-0.4,1.614-.8,3.227h-0.8q-0.4,2.421-.8,4.841h-0.8v1.614h-0.8v2.421h-0.8V403.1h-0.8v1.614h-0.8q-0.4,2.42-.8,4.841l-1.606.806q-0.4,1.614-.8,3.228l-1.607.807q-0.4,1.209-.8,2.42h-1.606l-1.606,2.421H220.461a8.173,8.173,0,0,0-1.606-1.614V415.2h-0.8v-2.42h-0.8v-2.421h-0.8V396.641h0.8v-2.42h0.8q0.4-2.824.8-5.648h0.8q0.4-1.614.8-3.227h0.8v-2.421h0.8v-1.614h0.8V379.7l1.606-.807q0.4-1.614.8-3.228l1.606-.806v-1.614l1.607-.807v-1.614l1.606-.806V368.4l2.409-1.614v-1.613l4.016-3.228v-1.613q2.809-2.421,5.622-4.841v-1.614l6.424-5.648v-1.614l4.819-4.034q0.4-.807.8-1.614H255.8l0.8-1.613h1.606v-0.807h1.606v-0.807h1.606v-0.807h1.606v-0.807h1.607l4.818-4.034v-1.613h0.8q0.8-2.421,1.607-4.841h0.8v-2.421h0.8v-1.614h0.8v-2.42h0.8v-1.614h0.8v-1.613l1.606-.807,0.8-3.228h0.8q0.4-1.209.8-2.42l1.606-.807v-1.614l2.409-1.613v-1.614l1.607-.807q0.4-1.211.8-2.42h0.8v-1.614l1.606-.807v-1.614l1.606-.806v-1.614c2.146-3.257,5.028-5.535,5.622-10.489a18.165,18.165,0,0,0-8.031,3.227l-0.8,1.614-3.213.807q-0.4.807-.8,1.614H281.5q-0.4.805-.8,1.613l-3.213.807q-0.4.807-.8,1.614l-3.212.807q-0.4.806-.8,1.613l-3.213.807q-0.4.807-.8,1.614h-1.606q-0.4.807-.8,1.613h-1.606v0.807h-0.8c-1,.543.03,0.032-0.8,0.807h-0.8v0.807h-0.8q0.4,2.421.8,4.841l-4.015,3.227v3.228h-0.8v0.807h-0.8v0.806H255v0.807h-2.409v0.807H250.98v0.807l-1.606.807v1.613l-1.607.807v2.421c-0.511,1.26-2.68,3.766-1.606,6.454l1.606,0.807v4.034c-7.076,4.205-8.32,13.98-19.274,14.524v-0.807h-5.622c-4.273-1.592-4.827-5.814-10.441-6.455a1.412,1.412,0,0,1-.8.807c0.018,5.8-1.831,13.087-3.212,17.75V368.4h-0.8v3.227h-0.8v4.841h-0.8v2.421h-0.8V380.5h-0.8q-0.8,3.631-1.606,7.262h-0.8v1.614h-0.8q-0.4,2.016-.8,4.034h-0.8l-0.8,4.841h-0.8q-0.4,1.614-.8,3.227h-0.8V403.9h-0.8q-0.4,1.612-.8,3.227h-0.8c-2.424,5.4-4.047,13.38-8.835,16.137v0.807h-4.015v0.807l-5.622.806v0.807a15.087,15.087,0,0,1-7.228,1.614c0.194-3.073.83-3.617,1.606-5.648h-0.8c-3.167-4.533-8.7-1.5-8.834-9.682h0.8v-3.227h-0.8v-4.035h-0.8v-6.454h-0.8v-5.648h-0.8v-5.648h-0.8V380.5c-1.294-4.375-1.9-10.96-3.213-15.329v-4.841c-1.632-5.3-3.083-11.835-4.819-16.944v-3.227c-1.438-4.193-2.787-10.943-7.228-12.1v-0.807h-3.212c-1.849,3.6-4.451,6.214-7.228,8.875q-0.4.807-.8,1.614h-1.606l-0.8,2.421q-0.8.4-1.606,0.806-1.6,5.647-3.212,11.3v3.228l-4.819,7.261-2.409,1.614v1.613l-2.41,1.614v2.421h-0.8q-0.4,1.613-.8,3.227h-0.8q-0.8,4.034-1.606,8.068h-0.8v2.421h-0.8q-0.4,1.614-.8,3.227h-0.8v1.614L102.4,391.8v1.614h-0.8v0.807h0.8c1.284,7.512.407,24.106-6.425,25.012-0.915-.919,0-0.322-1.606-0.807v-1.614l-5.622.807c-1.757-2.572-4.578-3.117-7.228-4.841l-0.8-1.614H78.31l-0.8-1.613H75.9v-0.807H74.295v-0.807H71.886V407.13H70.279v-0.807c-2.722-1.318-2.117,1.223-3.212-2.42h-0.8l-0.8-4.841h-0.8v-2.421h-0.8l-0.8-4.841h-0.8v-1.613h-0.8v-2.421h-0.8q0.4-8.47.8-16.944h0.8c1.435-5.149-1.3-12.6.8-16.943l1.606-.807v-1.614l13.653-15.33h1.606l7.228-8.068h1.606l3.212-4.034H93.57l2.409-3.227h1.606l1.606-2.421H100.8q0.8-1.21,1.606-2.42h1.606l1.606-2.421h1.607q0.4-.807.8-1.614h1.606q0.4-.805.8-1.613c0.886-.558,8.184-2.733,9.637-2.421V308.7l12.047,0.807V308.7c3.978-1.029,4.762-4.76,7.228-7.262,4.1-4.164,8.773-7.03,13.653-10.488l1.606-2.421h1.606l0.8-1.614,2.409-.806V285.3h1.606q0.4-.807.8-1.614h1.606l0.8-1.614h1.606l0.8-1.613h1.606q0.4-.807.8-1.614h1.606l0.8-1.614h1.606l0.8-1.613h1.606q0.4-.807.8-1.614l3.213-.807q0.4-.807.8-1.613h1.606v-0.807l3.212-.807,0.8-1.614h1.606l2.409-3.227,1.606-.807q0.4-2.823.8-5.648c0.777-2.48,1.912-21.546.8-25.012h-0.8q-0.4-2.016-.8-4.034c-3.2.075-4.464,0.335-6.425,1.614q-0.4.807-.8,1.613l-3.212.807q-0.4.807-.8,1.614H178.7l-0.8,1.614H176.29l-0.8,1.613h-1.606q-0.4.807-.8,1.614h-1.606l-0.8,1.614h-1.606l-0.8,1.613h-1.606l-1.606,2.421H163.44q-0.8,1.21-1.606,2.42h-1.606l-1.606,2.421h-1.606q-1.206,1.612-2.41,3.227H153l-3.212,4.034h-1.607l-4.818,5.648h-1.607q-0.8,1.211-1.606,2.421l-2.409,1.613v0.807h-1.606l-4.016,4.841h-1.606l-8.031,8.875h-1.607l-6.424,7.262-2.41,1.614c-1.163,1.83-.085,4.1-0.8,6.454-0.613,2.008-1.945,4.162-2.409,6.455l-3.213.807c-1.555-2.332-4.138-2.418-6.425-4.034L96.782,297.4H95.176l-4.819-5.648-1.606-.806v-1.614l-2.409-1.614v-1.613l-1.606-.807-1.606-4.841h-0.8v-1.614h-0.8v-8.875c1.714-.891,3.715-2.531,5.622-3.227l8.031-1.614V264.32l4.819-1.614V261.9H101.6v-0.806l3.212-.807q0.4-.807.8-1.614l3.213-.807,1.606-2.42h1.606q0.8-1.21,1.606-2.421h1.607l1.606-2.42h1.606q2.007-2.421,4.016-4.841h1.606q2.409-2.825,4.819-5.648h1.606l4.015-4.841h1.607l4.015-4.841h1.606l2.41-3.227h1.606l2.409-3.228h1.607q0.8-1.211,1.606-2.42H153l1.606-2.421h1.606l2.41-3.227h1.606l0.8-1.614,2.409-.807,3.213-4.034h1.606l2.409-3.227h1.607l1.606-2.421L176.29,203l3.213-4.034c2.47-2.478,5.867-3.628,6.425-8.068-1.96-2.1-.487-10.527,0-12.91,2.026-1.08,2.814-1.6,6.424-1.613v0.807h3.213v-3.228c-6.61-4-8.039-15.093-18.472-15.33l-4.015,4.841h-1.606l-3.213,4.035h-1.606l-3.213,4.034h-1.606l-4.818,5.648h-1.607l-4.818,5.647h-1.607q-0.4.807-.8,1.614l-4.015,3.228v1.613l-4.819,4.034v0.807l-1.606.807v1.614L130.513,203l-4.819,5.648h-1.606q-0.4.807-.8,1.614h-1.606l-0.8,1.614h-1.606v0.806H116.86q-0.4.807-.8,1.614l-3.213.807-1.606,2.42h-0.8v1.614l-1.606.807q-0.4,2.018-.8,4.034h-0.8V226.4h-0.8v1.613h-0.8v1.614l-2.409,1.614q-0.4.807-.8,1.613H98.388v0.807c-1.352.774-4.711-.614-5.622-0.807l-4.016-8.068c-0.841-2.679.335-7.407,0.8-8.875l0.8-6.455h0.8v-1.614h0.8v-2.42h0.8l0.8-3.227h0.8v-2.421h0.8v-1.614h0.8v-2.42h0.8l2.409-20.171h0.8v-2.421h0.8V169.92h0.8v-1.614h0.8q0.4-2.823.8-5.647h0.8a39.371,39.371,0,0,0,2.409-9.682h2.41c0.013,5.247-1.258,8.371-2.41,12.1q-0.4,4.437-.8,8.875h-0.8q-0.8,7.665-1.606,15.33h-0.8q-1.2,14.118-2.409,28.239a1.414,1.414,0,0,1,.8.807c1.614-.463.694,0.1,1.606-0.807,2.883-.87,2.991-3.047,4.819-4.841h0.8l0.8-1.613h1.606l6.425-7.262,4.015-2.42v-1.614l4.819-4.034v-1.614h0.8l2.41-3.227,2.409-1.614v-1.613l4.819-4.035v-1.613l4.015-3.228v-1.613l3.213-2.421v-1.614l3.212-2.42v-1.614l2.409-1.613v-1.614l2.41-1.614v-1.613l2.409-1.614v-1.614l3.213-2.42V155.4l2.409-1.614v-0.806l1.606-.807v-1.614l1.606-.807v-1.613h0.8c0.79-1.182.667-2,.8-4.035-1.959-1.12-2.634-3.049-4.016-4.034h-1.606q-0.4-.807-0.8-1.614h-1.607l-0.8-1.613H153.8v-0.807l-3.212-.807v-0.807h-2.41v-0.807h-1.606v-0.806h-2.409V132h-1.607v-0.807h-4.015v-0.807h-2.409v-0.807h-2.41v-0.807h-3.212v-0.806l-10.441-2.421v0.807c-4.939,1.532-7.551,16.343-9.637,21.785h-2.409q0.8-10.084,1.606-20.171h0.8v-2.421h0.8v-3.227l1.606-.807q0.4-1.211.8-2.421h1.607c3.161-3.073,8.664-1.215,13.653-2.42v-0.807a2.132,2.132,0,0,1,2.409.807h7.228v0.807h3.212v0.807h2.41v0.806h3.212V119.9l4.016,0.807v0.807H153v0.807h2.409v0.807h1.607v0.806h2.409v0.807h1.606v0.807h1.606c3.964,2.084,8.857,4.442,14.456,4.841,0.514-1.012,1.309-1.146,1.607-1.614v-1.613h0.8v-1.614l3.212-2.42V121.51l1.606-.807v-5.648h0.8l0.8-1.613h1.606q0.4-.807.8-1.614l3.212-2.421v-1.613l2.41-1.614v-1.614l2.409-1.613v-1.614l1.606-.807q0.4-1.613.8-3.227l1.607-.807q0.8-2.42,1.606-4.841l1.606-.807V89.236h0.8V86.816l1.606-.807V84.4h0.8v-2.42l1.606-.807V78.748h0.8V77.134h0.8q0.4-1.614.8-3.227h0.8v-2.42h0.8q0.4-1.614.8-3.227h0.8V66.645h0.8v-2.42l1.606-.807V61h0.8q0.4-1.613.8-3.227h0.8q0.4-2.42.8-4.841h0.8l0.8-3.227h0.8v-2.42h0.8V45.667h0.8V43.247h0.8q0.4-1.614.8-3.227h0.8q0.4-2.42.8-4.841h0.8V33.565h0.8q0.4-2.824.8-5.648h0.8V26.3h0.8q0.4-3.227.8-6.455h0.8V17.428h0.8V15.814h0.8v-2.42h0.8q0.8-2.42,1.607-4.841h0.8V6.939L242.949,2.1q0.4-.807.8-1.614h2.409l4.819,8.068q0.4,2.017.8,4.034L255,15.007v1.614l4.016,3.227v1.614l3.212,2.421V25.5h0.8l3.213,13.716c1.136,4.028.015,15.675-.8,18.557q-0.4,4.437-.8,8.875h-0.8l-0.8,4.841h-0.8V73.1h-0.8v1.614l-1.606.807v1.614h-0.8L256.6,80.361H255v0.807h-2.409v0.807l-2.409.807v0.807h-0.8l-0.8,3.227h-0.8V88.43l-1.606.807V90.85l-1.606.807v1.614l-1.606.807v1.614l-4.016,3.227v1.614l-4.819,4.034v1.614l-10.44,9.682q-2.007,2.421-4.016,4.841h-1.606v0.807l-3.212,2.42-5.622,6.455h-1.606l-3.213,4.034h-1.606l-0.8,1.614A14.478,14.478,0,0,1,196.368,139.26Zm93.161-10.489c1.614,0.463.695-.1,1.606,0.807,9.554-1.905,16.5-9.02,28.912-4.034,2.2,4.236,1.67,11.207,1.607,17.75-1.45,1.27-.688,1.608-1.607,3.228h-0.8v1.614L310.41,156.2c-1.473,2.315.208,5.759-.8,8.875h-0.8c-1.054,2.842-1.487,3.606-1.606,7.262a14.009,14.009,0,0,0,7.228-1.614V169.92h2.409v-0.807h1.606v-0.807h1.606V167.5l4.016-.807v-0.807l3.212-.807v-0.807h2.41v-0.807l3.212-.806v-0.807h2.41v-0.807h1.606v-0.807h1.606c3.4-1.817,3.37-2.947,8.834-3.227-0.221,4.7-2.308,6.648-4.015,9.682v1.613l-1.606.807v1.614l-1.607.807v1.613l-3.212,2.421v1.614l-1.606.806-2.41,3.228-6.425,5.648v6.454c0.873,0.932,1.517,5.923.8,8.069-1.6,4.808-5.1,8.558-7.228,12.909l-4.818.807a2.3,2.3,0,0,0-2.41-.807c-1.025.217-4.982,1.682-7.228,0.807V214.3h-1.606l-1.606-2.42h-1.606v-0.807l-3.213-.807v-0.807h-2.409c-7.3-2.967-21.316-5.134-23.29-12.909h-0.8v-2.421h-0.8v-1.613h-0.8v-4.035h0.8v-1.613h0.8v-0.807h0.8V185.25h1.606v-0.807h2.409v-0.807c1.978-1.081,1.009.23,2.41-1.613h0.8V179.6c-1.716-1.435-2.3-3.328-2.41-6.455l15.26-14.523v-1.613l4.015-3.228V152.17l3.213-2.421v-1.613l2.409-1.614v-1.614l2.409-1.614v-1.613l2.41-1.614v-1.614l1.606-.806c0.931-1.014,1.336-2.348,2.409-3.228v-1.613a3.206,3.206,0,0,1-1.606-1.614c-1.614.463-.695-0.1-1.606,0.807-2.356.677-3.194,1.864-4.819,3.227v0.807h-1.606l-1.606,2.42H297.56q-0.4.807-.8,1.614h-1.606l-0.8,1.614h-1.606q-0.8,1.21-1.607,2.42h-1.606l-0.8,1.614H287.12q-0.4.807-.8,1.614h-0.8l-0.8,1.613H283.1L280.7,152.17h-1.606q-0.8,1.209-1.607,2.42h-0.8V156.2l-3.212,2.42v1.614l-1.606.807q-0.4,1.211-.8,2.42h-0.8v1.614h-0.8v1.614h-0.8v1.613h-0.8v1.614h-0.8v1.614h-0.8v1.613h-0.8q-0.8,2.421-1.606,4.841h-0.8v2.421h-0.8v1.614h-0.8q-0.4,2.016-.8,4.034h-0.8q-0.4,2.419-.8,4.841h-0.8q-0.4,1.614-.8,3.227h-0.8v3.228h-0.8v1.613H255q-0.4,2.421-.8,4.841h-0.8q-0.4,1.614-.8,3.228h-0.8q-0.4,2.419-.8,4.841h-0.8v1.613h-0.8v2.421h-0.8q-0.4,2.016-.8,4.034h-0.8q-0.4,1.614-.8,3.227h-0.8c-1.946,3.665-2.033,8.471-6.425,9.682v-0.806c-1.192-1.286-.877-4.755-0.8-7.262,1.527-1.872-.024-5.212.8-8.068h0.8v-6.455h0.8v-2.421h0.8v-4.034h0.8V200.58h0.8v-2.421h0.8v-3.227h0.8v-3.227h0.8v-1.614h0.8v-3.227h0.8v-2.421h0.8v-2.42h0.8V179.6h0.8q0.4-2.823.8-5.648h0.8v-1.613h0.8v-3.228h0.8v-2.42h0.8q0.4-6.051.8-12.1H255v-4.841h0.8V144.1h0.8v-6.454h0.8v-2.421h0.8v-1.614h0.8v-3.227h0.8v-1.614h0.8q0.8-4.84,1.606-9.682v-6.454h0.8v-0.807h3.213v-0.807l9.637,0.807v0.807C281.366,113.97,288.327,123.087,289.529,128.771Zm-128.5,98.435c4.043-.093,4.031-1.34,6.425-2.421l4.016-.807v-0.807l4.818-.807v-0.806l3.213-.807v-0.807h2.409l0.8-1.614h1.606v-0.807l3.213-.806V215.91l4.015-3.228v-5.647c-2.494-2.284-.941-4.268-5.621-4.841q-0.8,1.209-1.607,2.42h-1.606l-2.409,3.227H178.7l-1.607,2.421h-1.606l-1.606,2.42h-1.606l-7.228,8.069-3.213,2.42Q161.434,225.188,161.031,227.206Zm72.28,15.329c-1.436,1.584-1.56.68-3.212,1.614v0.807h-1.606l-0.8,1.614h-1.606v0.806h-1.606l-0.8,1.614h-1.606q-0.4.807-.8,1.614l-1.607.807v15.33h0.8v0.806h1.607q6.424-6.857,12.849-13.716c2.1-2.106,4.713-3.1,5.622-6.455h0.8c0.182-1.126-.3.217-0.8-0.806-0.581-2.229-.224-1.805-2.409-2.421C236.928,242.73,235.959,242.618,233.311,242.535Zm-81.917,71v1.614l-2.41.807-2.409,3.227h-0.8v3.227l10.44,9.682v1.614l2.41,1.614q0.4,2.016.8,4.034h0.8v1.613h0.8q0.4,2.421.8,4.842h0.8v1.613h0.8v2.421h0.8v2.42h0.8v1.614h0.8v2.42q1.6,2.825,3.212,5.648h2.41q0.4-1.211.8-2.42h0.8q0.4-2.825.8-5.648h0.8v-3.227h0.8v-1.614h0.8V345c1.3-3.832,3.5-8.093,4.016-12.91l-8.031-8.875h-1.607l-6.424-7.261h-0.8V312.73l2.41-1.613V310.31l6.425-.807c5.741-1.9,14.135-5.668,14.456-12.91,1.382-1.54,2.437-10.9,2.409-14.523h-0.8v-0.806c-1.614.462-.695-0.1-1.606,0.806-2.079.559-2.62,1.264-4.016,2.421V285.3h-1.606l-0.8,1.613h-0.8q-0.4.807-.8,1.614h-1.607q-1.6,2.018-3.212,4.034a119.575,119.575,0,0,0-14.456,12.91q-2.008,2.42-4.016,4.841l-1.606.807q-0.4,1.209-.8,2.42h-1.606ZM94.373,343.39l4.016,0.807,1.606-2.421h0.8q0.4-1.613.8-3.227l1.606-.807,4.016-4.841h1.606l3.212-4.034h1.606l4.819-5.648h1.606q0.4-1.211.8-2.42l1.607-.807c0.933-1.011,1.336-2.348,2.409-3.228v-1.613c-2.095-1.115-3.243-2.108-6.425-2.421v0.807h-2.409q-0.4.807-.8,1.614h-2.41v0.807h-1.606v0.806l-2.409.807q-0.4.807-.8,1.614h-1.607q-0.4.807-.8,1.614H104.01l-1.606,2.42H100.8v0.807l-2.41,1.614v1.613l-2.409,1.614C93.253,332.869,93.33,337.9,94.373,343.39ZM242.146,320.8v3.227h0.8v-0.807h0.8C244.325,321.489,242.851,321.324,242.146,320.8ZM230.9,397.448q0.4-1.21.8-2.42h0.8v-1.614l1.606-.807v-1.614l1.607-.806v-1.614l1.606-.807v-1.614l1.606-.806q0.4-1.614.8-3.228h0.8q0.4-1.211.8-2.42l1.607-.807v-1.614h0.8v-1.614l1.606-.806q0.4-1.614.8-3.228l1.606-.807v-1.613h0.8V367.6h0.8v-1.614h0.8v-1.613l1.606-.807q0.4-1.614.8-3.227l1.606-.807,5.622-12.91c-1.814.231-2.1,0.087-3.212,0.807v0.807H255v0.807l-4.818.807q-0.8,1.209-1.607,2.42h-0.8v1.614l-1.606.807V356.3l-1.606.807v1.614l-2.409,1.614v1.613l-2.41,1.614v1.614l-2.409,1.613V368.4l-1.606.807v1.613l-1.607.807v1.614l-1.606.807q-0.8,2.42-1.606,4.841l-1.606.807c-2.042,3.366-3.188,10.708-3.213,16.136a6.252,6.252,0,0,1,1.606,2.421Zm166.244,39.535h2.41V439.4h-2.41v-2.421Zm54.612,6.455c-0.477-3-.466-1.847,0-4.841h1.606c0.738-.32.462-2.3,2.41-1.614v0.807c2.583,0.595,2.924,1.095,3.212,4.034-1.773,1.015-3.866,2.916-5.622,1.614h-1.606Z"/>
</svg>
