<?xml version="1.0" standalone="no"?><!DOCTYPE svg PUBLIC "-//W3C//DTD SVG 1.1//EN" "http://www.w3.org/Graphics/SVG/1.1/DTD/svg11.dtd"><svg t="1672629380625" class="icon" viewBox="0 0 1024 1024" version="1.1" xmlns="http://www.w3.org/2000/svg" p-id="1697" width="64" height="64" xmlns:xlink="http://www.w3.org/1999/xlink"><path d="M469.333333 213.333333V128a42.666667 42.666667 0 1 1 85.333334 0v85.333333h127.829333C847.722667 213.333333 981.333333 347.029333 981.333333 512.149333v319.936A106.496 106.496 0 0 1 874.730667 938.666667h-85.461334c-48.661333 0-107.221333-29.290667-136.469333-68.266667l-64-85.333333c-6.144-8.170667-23.957333-17.066667-34.24-17.066667h-85.12c-10.282667 0-28.096 8.896-34.24 17.066667l-64 85.333333c-29.226667 38.976-87.808 68.266667-136.469333 68.266667H149.269333A106.496 106.496 0 0 1 42.666667 832.085333V512.149333C42.666667 347.029333 176.277333 213.333333 341.504 213.333333H469.333333z m213.162667 85.333334H341.504A213.333333 213.333333 0 0 0 128 512.149333v319.936c0 11.818667 9.450667 21.248 21.269333 21.248h85.461334c21.802667 0 55.082667-16.64 68.202666-34.133333l64-85.333333c22.272-29.696 65.408-51.2 102.506667-51.2h85.12c37.098667 0 80.213333 21.504 102.506667 51.2l64 85.333333c13.12 17.493333 46.4 34.133333 68.202666 34.133333h85.461334a21.162667 21.162667 0 0 0 21.269333-21.248V512.149333A213.333333 213.333333 0 0 0 682.496 298.666667zM362.666667 469.333333h42.666666a42.666667 42.666667 0 1 1 0 85.333334h-42.666666v42.666666a42.666667 42.666667 0 1 1-85.333334 0v-42.666666h-42.666666a42.666667 42.666667 0 1 1 0-85.333334h42.666666v-42.666666a42.666667 42.666667 0 1 1 85.333334 0v42.666666z m341.333333-21.333333a42.666667 42.666667 0 1 1 0-85.333333 42.666667 42.666667 0 0 1 0 85.333333z m0 213.333333a42.666667 42.666667 0 1 1 0-85.333333 42.666667 42.666667 0 0 1 0 85.333333z m-106.666667-106.666666a42.666667 42.666667 0 1 1 0-85.333334 42.666667 42.666667 0 0 1 0 85.333334z m213.333334 0a42.666667 42.666667 0 1 1 0-85.333334 42.666667 42.666667 0 0 1 0 85.333334z" p-id="1698" fill="#d7dae0"></path></svg>